<?xml version="1.0" encoding="utf-8"?>
<!-- Svg Vector Icons : http://www.onlinewebfonts.com/icon -->
<!DOCTYPE svg PUBLIC "-//W3C//DTD SVG 1.1//EN" "http://www.w3.org/Graphics/SVG/1.1/DTD/svg11.dtd">
<svg fill ="darkgray" version="1.1" xmlns="http://www.w3.org/2000/svg" xmlns:xlink="http://www.w3.org/1999/xlink" x="0px" y="0px" viewBox="0 0 1000 1000" enable-background="new 0 0 1000 1000" xml:space="preserve">
<metadata> Svg Vector Icons : http://www.onlinewebfonts.com/icon </metadata>
<g><path fill="darkgray" d="M659.5,828.6H10c15.4-123,103.8-226.7,215.2-265.2c-61.5-34.6-103.8-103.8-103.8-180.6c0-115.3,96.1-211.4,211.4-211.4c115.3,0,211.4,96.1,211.4,211.4c0,76.9-42.3,146-103.8,180.6C555.7,601.8,640.3,705.6,659.5,828.6L659.5,828.6z"/><path d="M990,701.8"/><path d="M858.7,456.6h-86.6V370c0-16-12.9-28.9-28.9-28.9h-29c-16,0-28.9,12.9-28.9,28.9v86.6h-86.6c-16,0-28.9,12.9-28.9,28.9v29c0,16,12.9,28.9,28.9,28.9h86.6V630c0,16,12.9,28.9,28.9,28.9h29c16,0,28.9-12.9,28.9-28.9v-86.6h86.6c16,0,28.9-12.9,28.9-28.9v-29C887.6,469.5,874.7,456.6,858.7,456.6z"/></g>
</svg>